<svg xmlns="http://www.w3.org/2000/svg" style="display: none;">
  <!-- This is not a standard font awesome icon, this icon is added manually -->
  <symbol id="fa-pencil-ruler" viewBox="0 0 512 512">
    <path d="M 127.6 255.2 l 107.68 -107.68 l -35.28 -35.28 l -49.36 49.36 a 6.32 6.32 90 0 1 -8.96 0 l -8.96 -8.96 c -2.48 -2.48 -2.48 -6.48 0 -8.96 l 49.36 -49.36 l -26.88 -26.88 C 145.2 57.52 129.12 57.52 119.2 67.44 L 47.44 139.2 c -9.92 9.92 -9.92 26 0 35.92 l 80.16 80.16 z m 310.8 -93.44 c 15.04 -15.04 15.04 -39.36 0 -54.32 l -36.24 -36.24 c -15.04 -15.04 -39.36 -15.04 -54.4 0 l -36.8 36.8 l 90.56 90.56 l 36.8 -36.8 z M 292.88 126.16 l -237.6 237.6 L 40.24 449.68 c -2 11.6 8.08 21.68 19.68 19.68 l 86 -15.04 L 383.44 216.72 L 292.88 126.16 z m 149.28 228.32 l -26.88 -26.88 l -49.36 49.36 c -2.48 2.48 -6.48 2.48 -8.96 0 l -8.96 -8.96 c -2.48 -2.48 -2.48 -6.48 0 -8.96 l 49.36 -49.36 l -35.28 -35.28 L 254.32 382 l 80.16 80.16 c 9.92 9.92 26 9.92 35.92 0 l 71.76 -71.76 c 9.92 -9.92 9.92 -26 0 -35.92 z"></path>
  </symbol>
  <!-- weather-plugin-button-icon -->
  <symbol id="falk-weather" viewBox="0 0 24 24">
    <path d="m8.3739 20.858c-0.62881-0.10728-1.4067-0.46758-1.9146-0.88685-0.56486-0.46625-1.0821-1.2087-1.2828-1.8414-0.1517-0.47812-0.25627-1.0556-0.25627-1.4151 0-0.3758 0.15495-1.1474 0.30652-1.5264l0.11534-0.28839-0.28798-0.26602c-1.0964-1.0128-1.6596-2.6705-1.4083-4.1451 0.097265-0.57058 0.20946-0.90832 0.46888-1.4114 0.57347-1.1121 1.633-1.9767 2.8614-2.3352 0.51633-0.15067 1.4422-0.20383 1.9955-0.11458 1.269 0.20472 2.4412 0.97669 3.1796 2.0941 0.12882 0.19494 0.19666 0.25948 0.24986 0.2377 1.3391-0.54825 2.9805-0.60641 4.3235-0.15319 0.90517 0.30546 1.6938 0.7904 2.3578 1.4497 0.67916 0.67449 1.035 1.196 1.3834 2.0276 0.3129 0.74684 0.45505 1.4304 0.47189 2.2691l0.0139 0.69301 0.30144 0.12219c0.75146 0.30461 1.3659 0.98346 1.6456 1.8183 0.15964 0.47634 0.15167 1.1959-0.01892 1.7094-0.29854 0.89863-0.91617 1.519-1.8805 1.8888-0.25488 0.09775-0.26141 0.09785-6.3306 0.10446-3.3415 0.0037-6.1741-0.01009-6.2947-0.0308zm12.45-2.0731c0.33281-0.2235 0.39603-0.46826 0.41204-0.69053 0.01835-0.25457 0.05572-0.28556-0.02256-0.62723-0.0338-0.14751-0.27076-0.31248-0.54019-0.45567-0.16851-0.08956-0.27673-0.10343-0.91868-0.11778-0.40022-0.0088-0.82461-0.03148-0.82461-0.03148-0.12997-0.01681 0.05005-0.517 0.12566-0.92357 0.20816-1.1193 0.08817-1.8663-0.17234-2.6428-0.49806-1.4846-1.2895-2.4161-2.7924-2.8355-0.40143-0.11204-0.49225-0.20114-1.1546-0.20114-0.66246 0-0.82926 0.013-1.231 0.12511-1.5913 0.44409-2.5566 1.4361-3.1452 3.1097-0.23254 0.66121-0.0759 0.92328-0.21849 0.89476-0.06683-0.01336-0.65382-0.04125-0.93232-0.02363-0.78083 0.04941-0.82742 0.09017-1.356 0.3486-0.53763 0.26285-0.75407 0.56878-0.98287 1.1597-0.12142 0.3136-0.21953 0.84377-0.14106 1.2217 0.14008 0.67475 0.38645 1.2963 0.98361 1.6288l12.58 0.13193zm-14.244-5.3888c0.56341-0.42848 1.3288-0.73525 1.9742-0.79124 0.18212-0.01579 0.35057-0.04141 0.37434-0.05692 0.023768-0.01551 0.13031-0.21484 0.23677-0.44296 0.3522-0.75473 0.77225-1.3422 1.3686-1.9142l0.25284-0.25802-0.55341-0.70158c-0.83867-0.57778-0.91745-0.69413-1.9334-0.7813-0.87367 0.097716-1.2187 0.10195-1.8507 0.62084-0.47557 0.39048-0.67187 0.73521-0.85917 1.4581-0.086337 0.33321-0.18113 0.95314-0.11198 1.2996 0.085249 0.42718 0.28693 1.0343 0.61139 1.3883 0.15721 0.17152 0.36049 0.28001 0.37066 0.28001 0.010165 0-0.031583 0.01453 0.11984-0.10065zm-4.2474 2.4027 1.4786-1.4764 0.5656 0.5656 0.5656 0.5656-2.072 1.9332zm-2.1654-5.3117 0.73312-2.65e-4 1.9866-0.015v1.6092h-1.9866zm2.9155-2.9923c-0.3872-0.38781-0.70401-0.72598-0.70401-0.75149l0.61165-1.5389 1.2024 1.1365c0.41128 0.38874 0.72705 0.74901 0.72705 0.77455 0 0.060295-1.0266 1.0844-1.087 1.0844-0.025321 0-0.36284-0.3173-0.75005-0.70511zm8.778 0.18462c-0.28546-0.28627-0.51901-0.5412-0.51901-0.56652 0-0.05705 1.3945-1.4541 1.4514-1.4541 0.04965 0 1.6459 0.4684 1.6459 0.51788 0 0.054148-1.957 2.0232-2.0111 2.0232-0.02651 0-0.28175-0.23422-0.5672-0.52048zm-4.3999-2.7136v-1.0164l1.5582-0.839 0.012618 2.8718h-1.5708z"></path>
  </symbol>
  <!-- lmsearch-custom-icon -->
  <symbol viewBox="0 0 24 24" id="ic_crop_house_24px">
    <path d="m19.971 2.1142h-15.941c-1.2639 0-2.2773 0.91262-2.2773 2.028v14.196c0 1.1154 1.0134 2.028 2.2773 2.028h4.5547l3.416 3.0421 3.416-3.0421h4.5547c1.2525 0 2.2773-0.91262 2.2773-2.028v-14.196c0-1.1154-1.0248-2.028-2.2773-2.028zm0.04381 16.226-4.346 0.0668-0.0033-1.4078 1.907-0.0093-0.0061-6.4189 0.87581 0.66395 1.042-1.4106-7.4915-4.9645 0.07451 8.5529 1.2774 0.0062 0.01965 3.5698 2.2748 0.01452 0.0079 1.4071-0.32334 0.05527-1.1443 0.95377-2.1744 1.8147-1.5697-1.5168-1.2186-1.2659-0.42331-0.02186-0.00571-1.5185 2.1575 0.03918-0.0061-3.5356 1.1281-0.0017-0.07451-8.5529-7.3986 5.3056 0.9239 1.3497 1.3465-0.85457-0.022582 6.2133 1.9067 0.0331-0.00327 1.5331-4.5881-0.05774-0.024923-14.245 15.921 0.028847z" />
  </symbol>
</svg>