<svg xmlns="http://www.w3.org/2000/svg" style="display: none;">
  <!-- This is not a standard font awesome icon, this icon is added manually -->
  <symbol id="fa-pencil-ruler" viewBox="0 0 512 512">
    <path d="M 127.6 255.2 l 107.68 -107.68 l -35.28 -35.28 l -49.36 49.36 a 6.32 6.32 90 0 1 -8.96 0 l -8.96 -8.96 c -2.48 -2.48 -2.48 -6.48 0 -8.96 l 49.36 -49.36 l -26.88 -26.88 C 145.2 57.52 129.12 57.52 119.2 67.44 L 47.44 139.2 c -9.92 9.92 -9.92 26 0 35.92 l 80.16 80.16 z m 310.8 -93.44 c 15.04 -15.04 15.04 -39.36 0 -54.32 l -36.24 -36.24 c -15.04 -15.04 -39.36 -15.04 -54.4 0 l -36.8 36.8 l 90.56 90.56 l 36.8 -36.8 z M 292.88 126.16 l -237.6 237.6 L 40.24 449.68 c -2 11.6 8.08 21.68 19.68 19.68 l 86 -15.04 L 383.44 216.72 L 292.88 126.16 z m 149.28 228.32 l -26.88 -26.88 l -49.36 49.36 c -2.48 2.48 -6.48 2.48 -8.96 0 l -8.96 -8.96 c -2.48 -2.48 -2.48 -6.48 0 -8.96 l 49.36 -49.36 l -35.28 -35.28 L 254.32 382 l 80.16 80.16 c 9.92 9.92 26 9.92 35.92 0 l 71.76 -71.76 c 9.92 -9.92 9.92 -26 0 -35.92 z"></path>
  </symbol>
  <!-- weather-plugin-button-icon -->
  <symbol id="falk-weather" viewBox="0 0 24 24">
    <path d="m8.3739 20.858c-0.62881-0.10728-1.4067-0.46758-1.9146-0.88685-0.56486-0.46625-1.0821-1.2087-1.2828-1.8414-0.1517-0.47812-0.25627-1.0556-0.25627-1.4151 0-0.3758 0.15495-1.1474 0.30652-1.5264l0.11534-0.28839-0.28798-0.26602c-1.0964-1.0128-1.6596-2.6705-1.4083-4.1451 0.097265-0.57058 0.20946-0.90832 0.46888-1.4114 0.57347-1.1121 1.633-1.9767 2.8614-2.3352 0.51633-0.15067 1.4422-0.20383 1.9955-0.11458 1.269 0.20472 2.4412 0.97669 3.1796 2.0941 0.12882 0.19494 0.19666 0.25948 0.24986 0.2377 1.3391-0.54825 2.9805-0.60641 4.3235-0.15319 0.90517 0.30546 1.6938 0.7904 2.3578 1.4497 0.67916 0.67449 1.035 1.196 1.3834 2.0276 0.3129 0.74684 0.45505 1.4304 0.47189 2.2691l0.0139 0.69301 0.30144 0.12219c0.75146 0.30461 1.3659 0.98346 1.6456 1.8183 0.15964 0.47634 0.15167 1.1959-0.01892 1.7094-0.29854 0.89863-0.91617 1.519-1.8805 1.8888-0.25488 0.09775-0.26141 0.09785-6.3306 0.10446-3.3415 0.0037-6.1741-0.01009-6.2947-0.0308zm12.45-2.0731c0.33281-0.2235 0.39603-0.46826 0.41204-0.69053 0.01835-0.25457 0.05572-0.28556-0.02256-0.62723-0.0338-0.14751-0.27076-0.31248-0.54019-0.45567-0.16851-0.08956-0.27673-0.10343-0.91868-0.11778-0.40022-0.0088-0.82461-0.03148-0.82461-0.03148-0.12997-0.01681 0.05005-0.517 0.12566-0.92357 0.20816-1.1193 0.08817-1.8663-0.17234-2.6428-0.49806-1.4846-1.2895-2.4161-2.7924-2.8355-0.40143-0.11204-0.49225-0.20114-1.1546-0.20114-0.66246 0-0.82926 0.013-1.231 0.12511-1.5913 0.44409-2.5566 1.4361-3.1452 3.1097-0.23254 0.66121-0.0759 0.92328-0.21849 0.89476-0.06683-0.01336-0.65382-0.04125-0.93232-0.02363-0.78083 0.04941-0.82742 0.09017-1.356 0.3486-0.53763 0.26285-0.75407 0.56878-0.98287 1.1597-0.12142 0.3136-0.21953 0.84377-0.14106 1.2217 0.14008 0.67475 0.38645 1.2963 0.98361 1.6288l12.58 0.13193zm-14.244-5.3888c0.56341-0.42848 1.3288-0.73525 1.9742-0.79124 0.18212-0.01579 0.35057-0.04141 0.37434-0.05692 0.023768-0.01551 0.13031-0.21484 0.23677-0.44296 0.3522-0.75473 0.77225-1.3422 1.3686-1.9142l0.25284-0.25802-0.55341-0.70158c-0.83867-0.57778-0.91745-0.69413-1.9334-0.7813-0.87367 0.097716-1.2187 0.10195-1.8507 0.62084-0.47557 0.39048-0.67187 0.73521-0.85917 1.4581-0.086337 0.33321-0.18113 0.95314-0.11198 1.2996 0.085249 0.42718 0.28693 1.0343 0.61139 1.3883 0.15721 0.17152 0.36049 0.28001 0.37066 0.28001 0.010165 0-0.031583 0.01453 0.11984-0.10065zm-4.2474 2.4027 1.4786-1.4764 0.5656 0.5656 0.5656 0.5656-2.072 1.9332zm-2.1654-5.3117 0.73312-2.65e-4 1.9866-0.015v1.6092h-1.9866zm2.9155-2.9923c-0.3872-0.38781-0.70401-0.72598-0.70401-0.75149l0.61165-1.5389 1.2024 1.1365c0.41128 0.38874 0.72705 0.74901 0.72705 0.77455 0 0.060295-1.0266 1.0844-1.087 1.0844-0.025321 0-0.36284-0.3173-0.75005-0.70511zm8.778 0.18462c-0.28546-0.28627-0.51901-0.5412-0.51901-0.56652 0-0.05705 1.3945-1.4541 1.4514-1.4541 0.04965 0 1.6459 0.4684 1.6459 0.51788 0 0.054148-1.957 2.0232-2.0111 2.0232-0.02651 0-0.28175-0.23422-0.5672-0.52048zm-4.3999-2.7136v-1.0164l1.5582-0.839 0.012618 2.8718h-1.5708z"></path>
  </symbol>
  <!-- lmsearch-custom-icon -->
  <symbol viewBox="0 0 24 24" id="ic_crop_house_24px">
    <path d="m19.971 2.1142h-15.941c-1.2639 0-2.2773 0.91262-2.2773 2.028v14.196c0 1.1154 1.0134 2.028 2.2773 2.028h4.5547l3.416 3.0421 3.416-3.0421h4.5547c1.2525 0 2.2773-0.91262 2.2773-2.028v-14.196c0-1.1154-1.0248-2.028-2.2773-2.028zm0.04381 16.226-4.346 0.0668-0.0033-1.4078 1.907-0.0093-0.0061-6.4189 0.87581 0.66395 1.042-1.4106-7.4915-4.9645 0.07451 8.5529 1.2774 0.0062 0.01965 3.5698 2.2748 0.01452 0.0079 1.4071-0.32334 0.05527-1.1443 0.95377-2.1744 1.8147-1.5697-1.5168-1.2186-1.2659-0.42331-0.02186-0.00571-1.5185 2.1575 0.03918-0.0061-3.5356 1.1281-0.0017-0.07451-8.5529-7.3986 5.3056 0.9239 1.3497 1.3465-0.85457-0.022582 6.2133 1.9067 0.0331-0.00327 1.5331-4.5881-0.05774-0.024923-14.245 15.921 0.028847z" />
  </symbol>
  <!-- filter-plugin-icon -->
  <symbol id="ic_filter_24px" viewBox="0 0 512 512">
    <path d="m456 84c3 8 2 15-4 20l-141 141 0 212c0 8-4 14-11 17-3 1-5 1-7 1-6 0-10-1-13-5l-73-73c-4-4-6-8-6-13l0-139-141-141c-6-5-7-12-4-20 4-7 9-11 17-11l366 0c8 0 13 4 17 11z" />
  </symbol>
  <!-- favicons-falkoping -->
  <symbol id="falk_favicon_f_24px" viewBox="0 0 24 24">
    <path d="m4.3965 1c-1.8821 0-3.3965 1.5144-3.3965 3.3965v15.207c0 1.8821 1.5144 3.3965 3.3965 3.3965h15.207c1.8821 0 3.3965-1.5144 3.3965-3.3965v-15.207c0-1.8821-1.5144-3.3965-3.3965-3.3965zm2.7422 2.5h9.7227v3.7754h-5.2852v2.7383h4.8125v3.7754h-4.8125v6.6875l-4.4375 0.023438v-8.502z" />
  </symbol>
  <symbol id="falk_guider_24px" viewBox="0 0 744 744">
    <path d="m126.07 710.13c-1.6-0.32288-6.3514-1.2834-10.559-2.1346-22.506-4.553-46.585-20.09-60.682-39.154-6.7347-9.1084-14.546-25.136-17.722-36.361-2.55-9.014-2.6746-21.249-2.6746-262.55 0-210.16 0.33994-254.45 2.0043-261.09 10.639-42.466 44.32-73.452 86.97-80.011 6.7297-1.0349 90.185-1.397 258.66-1.1223l248.73 0.40551 13.162 4.6016c36.957 12.92 61.065 38.939 70.631 76.23 1.6931 6.5999 2.0255 49.554 2.0255 261.71v253.82l-4.6016 13.162c-12.33 35.267-34.728 57.102-71.035 69.25l-10.182 3.4066-250.91 0.20912c-138 0.11505-252.22-0.0551-253.82-0.37797zm313.46-95.212c44.458-4.6959 91.034-17.036 131.27-34.781l14.182-6.2538v-226.49h-189.09v81.455h74.182v91.318l-11.273 3.0383c-33.282 8.9702-79.805 7.5664-111.21-3.3559-33.542-11.665-60.123-38.185-73.828-73.658-17.249-44.647-15.019-113.8 4.997-154.94 18.664-38.365 50.165-60.929 97.497-69.835 17.713-3.3327 54.246-3.3276 75.637 0.0102 33.089 5.1638 65.182 15.541 96.905 31.334 9.7394 4.849 18.266 8.816 18.947 8.816 0.68156 0 1.2392-21.623 1.2392-48.052v-48.052l-6.9091-3.0193c-34.252-14.968-78.705-25.977-122.34-30.296-19.472-1.9274-62.63-1.9126-81.874 0.028-63.91 6.4451-115.2 28.57-154.22 66.527-45.737 44.49-66.605 99.504-66.605 175.59 0 58.752 11.692 101.7 39.002 143.27 10.876 16.556 39.182 44.886 56.272 56.321 38.64 25.853 76.921 37.881 137.4 43.17 9.9105 0.86674 54.187-0.49289 69.818-2.1439z"/>
  </symbol>
  <symbol id="falk_favicon_p_24px" viewBox="0 0 24 24">
    <path d="m 4.416984,1.0286581 c -1.8771789,0 -3.3883259,1.5111471 -3.3883259,3.3883259 v 15.166032 c 0,1.877178 1.511147,3.388326 3.3883259,3.388326 h 15.166032 c 1.877178,0 3.388326,-1.511148 3.388326,-3.388326 V 4.416984 c 0,-1.8771789 -1.511148,-3.3883259 -3.388326,-3.3883259 z m 1.1612256,2.5049077 h 3.3280228 c 1.8303866,0 3.7788616,0.046099 4.3299856,0.1025655 1.078354,0.1104856 2.17112,0.4292523 2.865182,0.8360001 1.573321,0.9220282 2.443276,2.8669677 2.306474,5.1572238 -0.137954,2.3095368 -0.984244,3.7986058 -2.614176,4.6005798 -0.988034,0.486142 -1.772244,0.624769 -3.901677,0.691169 l -1.862703,0.05824 v 2.743545 2.743544 H 7.8037635 5.5782096 v -8.466691 z m 4.4511084,3.6769574 v 2.0941236 2.0941242 l 1.088552,-0.067 c 0.598704,-0.03684 1.249617,-0.109874 1.446765,-0.16184 0.456906,-0.120435 0.936788,-0.523093 1.106077,-0.928259 C 13.862989,9.7814858 13.836041,8.6953135 13.620717,8.2264025 13.251219,7.4217494 12.763593,7.2206133 11.166319,7.2146466 Z"/>
  </symbol>
  <symbol id="falk_favicon_op_24px" viewBox="0 0 24 24">
    <path d="M 4.3964844,1 C 2.5143865,1 1,2.5143865 1,4.3964844 V 19.603516 C 1,21.485614 2.5143865,23 4.3964844,23 H 19.603516 C 21.485614,23 23,21.485614 23,19.603516 V 4.3964844 C 23,2.5143865 21.485614,1 19.603516,1 Z m 5.4101562,2.0566406 c 0.9322924,0 1.6933594,0.759114 1.6933594,1.6914063 0,0.9495569 -0.761067,1.6933593 -1.6933594,1.6933593 -0.9495569,0 -1.7089844,-0.7438024 -1.7089844,-1.6933593 0,-0.9322923 0.7594275,-1.6914063 1.7089844,-1.6914063 z m 4.4199214,0 c 0.932293,0 1.69336,0.759114 1.69336,1.6914063 0,0.9495569 -0.761067,1.6933593 -1.69336,1.6933593 -0.949556,0 -1.708984,-0.7438024 -1.708984,-1.6933593 0,-0.9322923 0.759428,-1.6914063 1.708984,-1.6914063 z M 12,7.0625 c 3.746434,0 7.199219,2.7628736 7.199219,6.699219 0,4.21258 -3.021168,7.18164 -7.199219,7.18164 -4.1780506,0 -7.1992188,-2.96906 -7.1992188,-7.18164 C 4.8007812,9.8253736 8.2535662,7.0625 12,7.0625 Z m 0,3.279297 c -2.0199666,0 -3.6777344,1.640021 -3.6777344,3.435547 0,2.244407 1.6577678,3.884765 3.6777344,3.884765 2.019967,0 3.677734,-1.640358 3.677734,-3.884765 0,-1.795526 -1.657767,-3.435547 -3.677734,-3.435547 z"/>
  </symbol>
  <symbol id="falk_favicon_k_24px" viewBox="0 0 24 24">
    <path d="m 5.0907891,2.003353 c -1.7104295,0 -3.0874392,1.377057 -3.0874392,3.0874236 V 18.909268 c 0,1.710409 1.3770097,3.087379 3.0874392,3.087379 H 18.909268 c 1.71043,0 3.087382,-1.37697 3.087382,-3.087379 V 5.0907766 c 0,-1.7103666 -1.376952,-3.0874236 -3.087382,-3.0874236 z m 0.649929,2.3847544 H 7.70457 9.6684218 L 9.6903748,7.4753128 9.7123278,10.5623 10.924713,8.9472518 C 11.591511,8.0589646 12.637596,6.669731 13.249374,5.8601338 L 14.36171,4.3881074 h 2.427235 c 1.435521,0 2.415822,0.030551 2.399339,0.077687 -0.01532,0.043644 -0.373057,0.4898608 -0.794978,0.9938622 -1.027707,1.2274016 -4.33464,5.2161184 -4.741336,5.7188104 l -0.324531,0.401089 0.531114,0.654311 c 0.292135,0.360064 0.946155,1.163201 1.453343,1.785085 0.507185,0.621928 1.129066,1.3881 1.381997,1.702555 0.252925,0.314674 1.052448,1.297668 1.776731,2.184952 0.724287,0.887282 1.316907,1.633945 1.316907,1.65939 0,0.02619 -1.141494,0.0467 -2.536637,0.0467 H 14.71422 l -0.531516,-0.69787 C 13.890359,18.530612 12.764902,17.060288 11.681714,15.6467 l -1.9694211,-2.570285 -0.021953,3.268023 -0.021953,3.267979 H 7.7045129 5.7406041 V 12.00059 Z" />
  </symbol>
</svg>