<svg xmlns="http://www.w3.org/2000/svg" style="display: none;">
  <!-- This is not a standard font awesome icon, this icon is added manually -->
  <symbol id="fa-pencil-ruler" viewBox="0 0 512 512">
      <path d="M 127.6 255.2 l 107.68 -107.68 l -35.28 -35.28 l -49.36 49.36 a 6.32 6.32 90 0 1 -8.96 0 l -8.96 -8.96 c -2.48 -2.48 -2.48 -6.48 0 -8.96 l 49.36 -49.36 l -26.88 -26.88 C 145.2 57.52 129.12 57.52 119.2 67.44 L 47.44 139.2 c -9.92 9.92 -9.92 26 0 35.92 l 80.16 80.16 z m 310.8 -93.44 c 15.04 -15.04 15.04 -39.36 0 -54.32 l -36.24 -36.24 c -15.04 -15.04 -39.36 -15.04 -54.4 0 l -36.8 36.8 l 90.56 90.56 l 36.8 -36.8 z M 292.88 126.16 l -237.6 237.6 L 40.24 449.68 c -2 11.6 8.08 21.68 19.68 19.68 l 86 -15.04 L 383.44 216.72 L 292.88 126.16 z m 149.28 228.32 l -26.88 -26.88 l -49.36 49.36 c -2.48 2.48 -6.48 2.48 -8.96 0 l -8.96 -8.96 c -2.48 -2.48 -2.48 -6.48 0 -8.96 l 49.36 -49.36 l -35.28 -35.28 L 254.32 382 l 80.16 80.16 c 9.92 9.92 26 9.92 35.92 0 l 71.76 -71.76 c 9.92 -9.92 9.92 -26 0 -35.92 z"></path>
  </symbol>
</svg>
