<svg xmlns="http://www.w3.org/2000/svg" style="display: none;">

  <!-- minicons-icons -->
  <symbol id="minicons-square-vector" viewBox="0 0 512 512">
    <path d="M 93.379909,63.979157 418.7168,63.99935 c -3.66219,10.93279 -3.51639,21.601137 0.0118,32.034598 L 93.283199,96.00065 c 3.527888,-10.427659 3.659578,-21.094486 0.09671,-32.021493 z m 0.03374,352.099263 325.306149,-0.0876 c -3.76104,10.72833 -3.49087,21.41752 0.0201,32.07524 l -325.470998,-0.025 c 3.514521,-10.21243 3.831515,-20.83239 0.144719,-31.96263 z M 32.082177,125.27889 c 10.459409,3.52044 21.100501,3.72519 31.959331,-0.0438 l -0.02779,261.38257 c -10.742946,-3.48786 -21.417272,-3.5104 -32.018977,0.13438 z m 415.869153,-0.0464 c 11.45075,4.00147 22.02759,3.38369 32.08217,0.005 l -0.0409,261.50959 c -10.28518,-3.48912 -20.90356,-3.89612 -31.98723,7.5e-4 z M 48,32 C 22,32 0,53 0,80 0,107 22,128 48,128 74,128 96,107 96,80 96,53 75,32 48,32 m 416,96 c 26,0 48,-21 48,-48 0,-27 -22,-48 -48,-48 -26,0 -48,21 -48,48 0,27 22,48 48,48 m 0,256 c -26,0 -48,21 -48,48 0,27 22,48 48,48 26,0 48,-21 48,-48 0,-27 -22,-48 -48,-48 m -416,0 c -26,0 -48,21 -48,48 0,27 22,48 48,48 26,0 48,-21 48,-48 0,-27 -21,-48 -48,-48"/>
  </symbol>
  <symbol id="minicons-line-vector" viewBox="0 0 512 512">
    <path d="m 197.10724,189.0702 134.8205,152.8873 c -13.59341,5.61187 -21.68524,13.56133 -26.47342,23.49558 L 170.76154,216.80596 c 13.04776,-4.55937 24.93294,-20.73236 26.3457,-27.73576 z m -74.68326,21.38163 c 9.53121,7.99361 20.72676,9.6562 30.96362,10.16996 L 80.426162,396.25928 c -8.062327,-7.20424 -17.728406,-11.45759 -29.32113,-12.16591 z m 309.51059,-94.74391 c 9.07252,7.73357 19.01283,11.89954 29.88303,12.24265 l -77.62667,227.18022 c -6.61817,-7.00085 -14.70777,-13.08703 -28.65366,-15.53281 z m -279.95759,8.9345 c -26,0 -48,21 -48,48.00001 0,27 22,48 48,48 26,0 48,-21 48,-48 0,-27.00001 -21,-48.00001 -48,-48.00001 M 464,128 c 26,0 48,-21 48,-48 0,-27 -22,-48 -48,-48 -26,0 -48,21 -48,48 0,27 22,48 48,48 M 348.34609,339.05678 c -26,0 -48,21 -48,48 0,27 22,48 48,48 26,0 48,-21 48,-48 0,-27 -22,-48 -48,-48 M 48,384 c -26,0 -48,21 -48,48 0,27 22,48 48,48 26,0 48,-21 48,-48 0,-27 -21,-48 -48,-48"/>
  </symbol>

  <!-- steady-icons -->
  <symbol id="steady-measure" viewBox="0 0 512 512">
    <path d="m64 299l21 0l0-22l-21 0z m21-214l-21 0l0 22l21 0z m0 384l-21 0l0 22l-43 0l0 21l107 0l0-21l-43 0z m-21-298l21 0l0-22l-21 0z m0 64l21 0l0-22l-21 0z m128-235l0 512l277 0l0-512z m171 469l-128 0l0-426l128 0z m64 0l-43 0l0-42l43 0z m0-64l-43 0l0-42l43 0z m0-64l-43 0l0-42l43 0z m0-64l-43 0l0-42l43 0z m0-64l-43 0l0-42l43 0z m0-64l-43 0l0-42l43 0z m0-64l-43 0l0-42l43 0z m-406-64l43 0l0 22l21 0l0-22l43 0l0-21l-107 0z m43 406l21 0l0-22l-21 0z m0-64l21 0l0-22l-21 0z"/>
  </symbol>

  <!-- origo-icons -->
  <symbol id="origo-compass" viewBox="0 0 512 512">
    <path opacity="0.7" fill="#010202" d="
		M511.454,256.228c0,140.957-114.27,255.227-255.227,255.227C115.268,511.454,1,397.185,1,256.228C1,115.269,115.268,1,256.227,1
		C397.185,1,511.454,115.269,511.454,256.228z"/>
	<path id="path3011" fill="#E52620" d="M252.316,17.455v9.485l-3.103,34.295l-3.947,43.43
		l-4.329,31.176l-16.439,118.371h32.879h32.88l-16.44-118.371l-4.186-30.189l-3.804-41.95l-3.405-37.494v-8.753H252.316
		L252.316,17.455z"/>
	<path id="path3011-7" fill="#FFFFFF" d="M252.286,491v-9.485l-3.103-34.295l-3.947-43.43
		l-4.329-31.177l-16.439-118.37h32.878h32.88l-16.439,118.37l-4.186,30.19l-3.805,41.949l-3.404,37.494V491H252.286z"/>
  </symbol>

  <!--multiselect-->
  <symbol viewBox="0 0 24 24" id="baseline-select-all-24px">
    <path d="M0 0h24v24H0z" fill="none"/>
    <path d="M3 5h2V3c-1.1 0-2 .9-2 2zm0 8h2v-2H3v2zm4 8h2v-2H7v2zM3 9h2V7H3v2zm10-6h-2v2h2V3zm6 0v2h2c0-1.1-.9-2-2-2zM5 21v-2H3c0 1.1.9 2 2 2zm-2-4h2v-2H3v2zM9 3H7v2h2V3zm2 18h2v-2h-2v2zm8-8h2v-2h-2v2zm0 8c1.1 0 2-.9 2-2h-2v2zm0-12h2V7h-2v2zm0 8h2v-2h-2v2zm-4 4h2v-2h-2v2zm0-16h2V3h-2v2zM7 17h10V7H7v10zm2-8h6v6H9V9z"/>
  </symbol>

  <symbol viewBox="0 0 24 24" id="baseline-crop_square-24px">
    <path d="M0 0h24v24H0z" fill="none"/>
    <path d="M18 4H6c-1.1 0-2 .9-2 2v12c0 1.1.9 2 2 2h12c1.1 0 2-.9 2-2V6c0-1.1-.9-2-2-2zm0 14H6V6h12v12z"/>
  </symbol>

    <symbol viewBox="0 0 24 24" id="baseline-crop_square-24px">
    <path d="M0 0h24v24H0z" fill="none"/>
    <path d="M18 4H6c-1.1 0-2 .9-2 2v12c0 1.1.9 2 2 2h12c1.1 0 2-.9 2-2V6c0-1.1-.9-2-2-2zm0 14H6V6h12v12z"/>
  </symbol>


 <!--Egna symboler-->
      <!--Guider-->
      <symbol viewBox="0 0 744 744" id="falk_guider-24px">
     <path d="m126.07 710.13c-1.6-0.32288-6.3514-1.2834-10.559-2.1346-22.506-4.553-46.585-20.09-60.682-39.154-6.7347-9.1084-14.546-25.136-17.722-36.361-2.55-9.014-2.6746-21.249-2.6746-262.55 0-210.16 0.33994-254.45 2.0043-261.09 10.639-42.466 44.32-73.452 86.97-80.011 6.7297-1.0349 90.185-1.397 258.66-1.1223l248.73 0.40551 13.162 4.6016c36.957 12.92 61.065 38.939 70.631 76.23 1.6931 6.5999 2.0255 49.554 2.0255 261.71v253.82l-4.6016 13.162c-12.33 35.267-34.728 57.102-71.035 69.25l-10.182 3.4066-250.91 0.20912c-138 0.11505-252.22-0.0551-253.82-0.37797zm313.46-95.212c44.458-4.6959 91.034-17.036 131.27-34.781l14.182-6.2538v-226.49h-189.09v81.455h74.182v91.318l-11.273 3.0383c-33.282 8.9702-79.805 7.5664-111.21-3.3559-33.542-11.665-60.123-38.185-73.828-73.658-17.249-44.647-15.019-113.8 4.997-154.94 18.664-38.365 50.165-60.929 97.497-69.835 17.713-3.3327 54.246-3.3276 75.637 0.0102 33.089 5.1638 65.182 15.541 96.905 31.334 9.7394 4.849 18.266 8.816 18.947 8.816 0.68156 0 1.2392-21.623 1.2392-48.052v-48.052l-6.9091-3.0193c-34.252-14.968-78.705-25.977-122.34-30.296-19.472-1.9274-62.63-1.9126-81.874 0.028-63.91 6.4451-115.2 28.57-154.22 66.527-45.737 44.49-66.605 99.504-66.605 175.59 0 58.752 11.692 101.7 39.002 143.27 10.876 16.556 39.182 44.886 56.272 56.321 38.64 25.853 76.921 37.881 137.4 43.17 9.9105 0.86674 54.187-0.49289 69.818-2.1439z" fill="#343a40" stroke-width="1.4546"/>
  </symbol>
</svg>
